<?xml version="1.0" encoding="utf-8"?>
<!-- Generator: Adobe Illustrator 23.0.6, SVG Export Plug-In . SVG Version: 6.00 Build 0)  -->
<svg version="1.1" id="Layer_1" xmlns="http://www.w3.org/2000/svg" xmlns:xlink="http://www.w3.org/1999/xlink" x="0px" y="0px"
	 viewBox="0 0 362 284.5" style="enable-background:new 0 0 362 284.5;" xml:space="preserve">
<style type="text/css">
	.st0{fill:#FFFFFF;}
	.st1{fill:none;stroke:#000000;stroke-miterlimit:10;}
	.st2{font-family:monospace;}
	.st3{font-size:18px;}
	.st4{font-family:sans-serif;}
	.st5{font-size:14px;}
</style>
<g>
	<rect x="112.5" y="0.5" class="st0" width="136" height="67"/>
	<path d="M248,1v66H113V1H248 M249,0H112v68h137V0L249,0z"/>
</g>
<g>
	<rect x="112.5" y="99.5" class="st0" width="136" height="67"/>
	<path d="M248,100v66H113v-66H248 M249,99H112v68h137V99L249,99z"/>
</g>
<circle class="st1" cx="39" cy="138" r="38.5"/>
<circle class="st1" cx="323" cy="137" r="38.5"/>
<circle class="st1" cx="246.8" cy="245.5" r="38.5"/>
<polygon class="st1" points="136.9,207.5 94.1,207.5 72.8,244.5 94.1,281.5 136.9,281.5 158.2,244.5 "/>
<text transform="matrix(1 0 0 1 174.8213 36.8833)" class="st2 st3">p</text>
<text transform="matrix(1 0 0 1 176.4233 137.4683)" class="st2 st3">a</text>
<text transform="matrix(1 0 0 1 15.0024 141.7788)" class="st4 st3">This...</text>
<text transform="matrix(1 0 0 1 234.5508 250.4316)" class="st4 st3">link</text>
<text transform="matrix(1 0 0 1 301.1748 142.0552)" class="st4 st3">inside.</text>
<text transform="matrix(1 0 0 1 83.168 248.1826)" class="st2 st5">href=”…”</text>
<line class="st1" x1="119" y1="67" x2="58" y2="104"/>
<line class="st1" x1="181.5" y1="67.5" x2="181.5" y2="98.5"/>
<line class="st1" x1="240.5" y1="67.5" x2="300.5" y2="106.5"/>
<line class="st1" x1="131.5" y1="167.5" x2="115.5" y2="207.5"/>
<line class="st1" x1="228.5" y1="167.5" x2="246.5" y2="206.5"/>
</svg>
