<?xml version="1.0" encoding="utf-8"?>
<!-- Generator: Adobe Illustrator 23.0.6, SVG Export Plug-In . SVG Version: 6.00 Build 0)  -->
<svg version="1.1" id="Layer_1" xmlns="http://www.w3.org/2000/svg" xmlns:xlink="http://www.w3.org/1999/xlink" x="0px" y="0px"
	 viewBox="0 0 832 393" style="enable-background:new 0 0 832 393;" xml:space="preserve">
<style type="text/css">
	.st0{fill:#FFFFFF;}
	.st1{font-family:monospace;}
	.st2{font-size:18px;}
	.st3{fill:none;stroke:#000000;stroke-miterlimit:10;}
	.st4{fill:none;}
	.st5{stroke:#000000;stroke-miterlimit:10;}
	.st6{font-family:sans-serif}
</style>
<g>
	<rect x="237.5" y="0.5" class="st0" width="136" height="67"/>
	<path d="M373,1v66H238V1H373 M374,0H237v68h137V0L374,0z"/>
</g>
<g>
	<rect x="91.5" y="114.5" class="st0" width="136" height="67"/>
	<path d="M227,115v66H92v-66H227 M228,114H91v68h137V114L228,114z"/>
</g>
<g>
	<rect x="166.5" y="214.5" class="st0" width="136" height="67"/>
	<path d="M302,215v66H167v-66H302 M303,214H166v68h137V214L303,214z"/>
</g>
<g>
	<rect x="0.5" y="214.5" class="st0" width="136" height="67"/>
	<path d="M136,215v66H1v-66H136 M137,214H0v68h137V214L137,214z"/>
</g>
<g>
	<rect x="391.5" y="114.5" class="st0" width="136" height="67"/>
	<path d="M527,115v66H392v-66H527 M528,114H391v68h137V114L528,114z"/>
</g>
<g>
	<rect x="356.5" y="212.5" class="st0" width="136" height="67"/>
	<path d="M492,213v66H357v-66H492 M493,212H356v68h137V212L493,212z"/>
</g>
<g>
	<rect x="525.5" y="212.5" class="st0" width="136" height="67"/>
	<path d="M661,213v66H526v-66H661 M662,212H525v68h137V212L662,212z"/>
</g>
<text transform="matrix(1 0 0 1 285.6924 39.231)" class="st1 st2">html</text>
<text transform="matrix(1 0 0 1 141.3076 154.231)" class="st1 st2">head</text>
<text transform="matrix(1 0 0 1 435.0771 154.1538)" class="st1 st2">body</text>
<text transform="matrix(1 0 0 1 45.0771 253.9229)" class="st1 st2">meta</text>
<text transform="matrix(1 0 0 1 205.6924 255.1543)" class="st1 st2">title</text>
<text transform="matrix(1 0 0 1 415.769 251.1543)" class="st1 st2">h1</text>
<text transform="matrix(1 0 0 1 586.6924 249.8457)" class="st1 st2">p</text>
<circle class="st3" cx="234" cy="351" r="38.5"/>
<circle class="st3" cx="425" cy="352" r="38.5"/>
<circle class="st3" cx="595" cy="352" r="38.5"/>
<circle class="st3" cx="763" cy="354" r="38.5"/>
<g>
	<rect x="695.5" y="213.5" class="st0" width="136" height="67"/>
	<path d="M831,214v66H696v-66H831 M832,213H695v68h137V213L832,213z"/>
</g>
<text transform="matrix(1 0 0 1 756.6924 250.8457)" class="st1 st2">p</text>
<text transform="matrix(1 0 0 1 219.0771 355.6924)" class="st6 st2">text</text>
<text transform="matrix(1 0 0 1 410.874 355.2063)" class="st6 st2">text</text>
<text transform="matrix(1 0 0 1 580.874 356.2063)" class="st6 st2">text</text>
<text transform="matrix(1 0 0 1 748.874 358.2063)" class="st6 st2">text</text>
<line class="st3" x1="361.5" y1="66.5" x2="403.5" y2="113.5"/>
<line class="st3" x1="248.5" y1="67.5" x2="212.5" y2="114.5"/>
<line class="st3" x1="102.5" y1="182.5" x2="80.5" y2="213.5"/>
<line class="st3" x1="218.5" y1="181.5" x2="243.5" y2="213.5"/>
<line class="st3" x1="398.5" y1="181.5" x2="375.5" y2="211.5"/>
<line class="st3" x1="482.5" y1="181.5" x2="539.5" y2="211.5"/>
<line class="st3" x1="520.5" y1="181.5" x2="713.5" y2="212.5"/>
<line class="st3" x1="234.5" y1="281.5" x2="234.5" y2="311.5"/>
<line class="st4" x1="422" y1="279" x2="422" y2="314"/>
<line class="st5" x1="425" y1="279" x2="425" y2="314"/>
<line class="st5" x1="594.5" y1="279" x2="594.5" y2="314"/>
<line class="st5" x1="762.5" y1="281" x2="762.5" y2="316"/>
</svg>
