<?xml version="1.0" encoding="utf-8"?>
<!-- Generator: Adobe Illustrator 23.1.1, SVG Export Plug-In . SVG Version: 6.00 Build 0)  -->
<svg version="1.1" id="Layer_1" xmlns="http://www.w3.org/2000/svg" xmlns:xlink="http://www.w3.org/1999/xlink" x="0px" y="0px"
	 viewBox="0 0 460.5 180.2" style="enable-background:new 0 0 460.5 180.2;" xml:space="preserve">
<style type="text/css">
	.st0{fill:#FFFFFF;}
	.st1{font-family:'IBMPlexMono', monospace;}
	.st2{font-size:18px;}
</style>
<g>
	<rect x="3" y="0.5" class="st0" width="139" height="106"/>
	<path d="M141.5,1v105H3.5V1H141.5 M142.5,0H2.5v107h140V0L142.5,0z"/>
</g>
<g>
	<rect x="163" y="0.5" class="st0" width="139" height="106"/>
	<path d="M301.5,1v105h-138V1H301.5 M302.5,0h-140v107h140V0L302.5,0z"/>
</g>
<g>
	<rect x="321" y="0.5" class="st0" width="139" height="106"/>
	<path d="M459.5,1v105h-138V1H459.5 M460.5,0h-140v107h140V0L460.5,0z"/>
</g>
<text transform="matrix(1 0 0 1 5 130.6367)" class="st1 st2">id</text>
<text transform="matrix(1 0 0 1 165.5249 130.1284)"><tspan x="0" y="0" class="st1 st2">class,</tspan><tspan x="0" y="21.6" class="st1 st2">pseudo-class</tspan></text>
<text transform="matrix(1 0 0 1 324.9658 130.5005)" class="st1 st2">type</text>
</svg>
